<mxfile host="app.diagrams.net" modified="2023-12-21T08:37:44.571Z" agent="Mozilla/5.0 (Windows NT 10.0; Win64; x64) AppleWebKit/537.36 (KHTML, like Gecko) Chrome/120.0.0.0 Safari/537.36" etag="i9StVyNMK5Q8otYn-BpH" version="22.1.11" type="device">
  <diagram name="第 1 页" id="fAo1M2NniN1ijL90zs9T">
    <mxGraphModel dx="1143" dy="607" grid="0" gridSize="10" guides="1" tooltips="1" connect="1" arrows="1" fold="1" page="1" pageScale="1" pageWidth="827" pageHeight="1169" math="0" shadow="0">
      <root>
        <mxCell id="0" />
        <mxCell id="1" parent="0" />
        <mxCell id="uUNol-_CrNXswZhDbWW2-2" value="&lt;font style=&quot;font-size: 24px;&quot;&gt;2.商品管理活動建模&lt;/font&gt;" style="text;html=1;strokeColor=none;fillColor=none;align=center;verticalAlign=middle;whiteSpace=wrap;rounded=0;" vertex="1" parent="1">
          <mxGeometry x="16" y="16" width="222" height="86" as="geometry" />
        </mxCell>
        <mxCell id="uUNol-_CrNXswZhDbWW2-3" value="&lt;font style=&quot;font-size: 18px;&quot;&gt;1.管理員先登錄到商品管理系統界面。&lt;/font&gt;" style="text;html=1;strokeColor=none;fillColor=none;align=left;verticalAlign=middle;whiteSpace=wrap;rounded=0;" vertex="1" parent="1">
          <mxGeometry x="20" y="81" width="312" height="30" as="geometry" />
        </mxCell>
        <mxCell id="uUNol-_CrNXswZhDbWW2-5" value="&lt;font style=&quot;font-size: 18px;&quot;&gt;2.管理員選擇要執行的操作。&lt;/font&gt;" style="text;html=1;strokeColor=none;fillColor=none;align=left;verticalAlign=middle;whiteSpace=wrap;rounded=0;" vertex="1" parent="1">
          <mxGeometry x="20" y="111" width="312" height="30" as="geometry" />
        </mxCell>
        <mxCell id="uUNol-_CrNXswZhDbWW2-6" value="&lt;font style=&quot;font-size: 18px;&quot;&gt;3.管理商品信息。&lt;/font&gt;" style="text;html=1;strokeColor=none;fillColor=none;align=left;verticalAlign=middle;whiteSpace=wrap;rounded=0;" vertex="1" parent="1">
          <mxGeometry x="20" y="139" width="312" height="30" as="geometry" />
        </mxCell>
        <mxCell id="uUNol-_CrNXswZhDbWW2-7" value="&lt;font style=&quot;font-size: 18px;&quot;&gt;4.結束進程。&lt;/font&gt;" style="text;html=1;strokeColor=none;fillColor=none;align=left;verticalAlign=middle;whiteSpace=wrap;rounded=0;" vertex="1" parent="1">
          <mxGeometry x="20" y="167" width="312" height="30" as="geometry" />
        </mxCell>
        <mxCell id="uUNol-_CrNXswZhDbWW2-10" value="" style="ellipse;whiteSpace=wrap;html=1;aspect=fixed;fillColor=#000000;" vertex="1" parent="1">
          <mxGeometry x="354" y="208" width="34" height="34" as="geometry" />
        </mxCell>
        <mxCell id="uUNol-_CrNXswZhDbWW2-11" value="" style="endArrow=classic;html=1;rounded=0;exitX=0.5;exitY=1;exitDx=0;exitDy=0;" edge="1" parent="1" source="uUNol-_CrNXswZhDbWW2-10">
          <mxGeometry width="50" height="50" relative="1" as="geometry">
            <mxPoint x="253" y="333" as="sourcePoint" />
            <mxPoint x="371" y="279" as="targetPoint" />
          </mxGeometry>
        </mxCell>
        <mxCell id="uUNol-_CrNXswZhDbWW2-28" style="edgeStyle=orthogonalEdgeStyle;rounded=0;orthogonalLoop=1;jettySize=auto;html=1;exitX=0.5;exitY=1;exitDx=0;exitDy=0;entryX=0.5;entryY=0;entryDx=0;entryDy=0;" edge="1" parent="1" source="uUNol-_CrNXswZhDbWW2-12" target="uUNol-_CrNXswZhDbWW2-13">
          <mxGeometry relative="1" as="geometry" />
        </mxCell>
        <mxCell id="uUNol-_CrNXswZhDbWW2-12" value="&lt;font style=&quot;font-size: 18px;&quot;&gt;管理員登陸&lt;/font&gt;" style="rounded=1;whiteSpace=wrap;html=1;" vertex="1" parent="1">
          <mxGeometry x="312.5" y="280" width="117" height="27" as="geometry" />
        </mxCell>
        <mxCell id="uUNol-_CrNXswZhDbWW2-26" style="edgeStyle=orthogonalEdgeStyle;rounded=0;orthogonalLoop=1;jettySize=auto;html=1;exitX=1;exitY=0.5;exitDx=0;exitDy=0;entryX=1;entryY=0.5;entryDx=0;entryDy=0;" edge="1" parent="1" source="uUNol-_CrNXswZhDbWW2-13" target="uUNol-_CrNXswZhDbWW2-12">
          <mxGeometry relative="1" as="geometry" />
        </mxCell>
        <mxCell id="uUNol-_CrNXswZhDbWW2-27" value="N" style="edgeLabel;html=1;align=center;verticalAlign=middle;resizable=0;points=[];" vertex="1" connectable="0" parent="uUNol-_CrNXswZhDbWW2-26">
          <mxGeometry x="-0.1629" y="3" relative="1" as="geometry">
            <mxPoint x="3" as="offset" />
          </mxGeometry>
        </mxCell>
        <mxCell id="uUNol-_CrNXswZhDbWW2-29" style="edgeStyle=orthogonalEdgeStyle;rounded=0;orthogonalLoop=1;jettySize=auto;html=1;exitX=0.5;exitY=1;exitDx=0;exitDy=0;entryX=0.5;entryY=0;entryDx=0;entryDy=0;" edge="1" parent="1" source="uUNol-_CrNXswZhDbWW2-13" target="uUNol-_CrNXswZhDbWW2-14">
          <mxGeometry relative="1" as="geometry" />
        </mxCell>
        <mxCell id="uUNol-_CrNXswZhDbWW2-30" value="Y" style="edgeLabel;html=1;align=center;verticalAlign=middle;resizable=0;points=[];" vertex="1" connectable="0" parent="uUNol-_CrNXswZhDbWW2-29">
          <mxGeometry x="-0.554" y="-1" relative="1" as="geometry">
            <mxPoint as="offset" />
          </mxGeometry>
        </mxCell>
        <mxCell id="uUNol-_CrNXswZhDbWW2-13" value="&lt;font style=&quot;font-size: 18px;&quot;&gt;帳戶密碼&lt;br&gt;是否正確&lt;/font&gt;" style="rhombus;whiteSpace=wrap;html=1;" vertex="1" parent="1">
          <mxGeometry x="286.5" y="323" width="169" height="68" as="geometry" />
        </mxCell>
        <mxCell id="uUNol-_CrNXswZhDbWW2-14" value="&lt;font style=&quot;font-size: 18px;&quot;&gt;商品管理&lt;/font&gt;" style="rounded=1;whiteSpace=wrap;html=1;" vertex="1" parent="1">
          <mxGeometry x="312.5" y="413" width="117" height="27" as="geometry" />
        </mxCell>
        <mxCell id="uUNol-_CrNXswZhDbWW2-16" value="" style="html=1;points=[[0,0,0,0,5],[0,1,0,0,-5],[1,0,0,0,5],[1,1,0,0,-5]];perimeter=orthogonalPerimeter;outlineConnect=0;targetShapes=umlLifeline;portConstraint=eastwest;newEdgeStyle={&quot;curved&quot;:0,&quot;rounded&quot;:0};direction=south;fillColor=#000000;" vertex="1" parent="1">
          <mxGeometry x="293" y="462" width="164" height="10" as="geometry" />
        </mxCell>
        <mxCell id="uUNol-_CrNXswZhDbWW2-17" value="&lt;font style=&quot;font-size: 18px;&quot;&gt;添加商品信息&lt;/font&gt;" style="rounded=1;whiteSpace=wrap;html=1;" vertex="1" parent="1">
          <mxGeometry x="68.5" y="571" width="117" height="27" as="geometry" />
        </mxCell>
        <mxCell id="uUNol-_CrNXswZhDbWW2-18" value="&lt;font style=&quot;font-size: 18px;&quot;&gt;查詢商品信息&lt;/font&gt;" style="rounded=1;whiteSpace=wrap;html=1;" vertex="1" parent="1">
          <mxGeometry x="244" y="571" width="117" height="27" as="geometry" />
        </mxCell>
        <mxCell id="uUNol-_CrNXswZhDbWW2-19" value="&lt;font style=&quot;font-size: 18px;&quot;&gt;刪除商品信息&lt;/font&gt;" style="rounded=1;whiteSpace=wrap;html=1;" vertex="1" parent="1">
          <mxGeometry x="410" y="571" width="117" height="27" as="geometry" />
        </mxCell>
        <mxCell id="uUNol-_CrNXswZhDbWW2-20" value="&lt;font style=&quot;font-size: 18px;&quot;&gt;商品維護&lt;/font&gt;" style="rounded=1;whiteSpace=wrap;html=1;" vertex="1" parent="1">
          <mxGeometry x="588" y="571" width="117" height="27" as="geometry" />
        </mxCell>
        <mxCell id="uUNol-_CrNXswZhDbWW2-21" value="" style="html=1;points=[[0,0,0,0,5],[0,1,0,0,-5],[1,0,0,0,5],[1,1,0,0,-5]];perimeter=orthogonalPerimeter;outlineConnect=0;targetShapes=umlLifeline;portConstraint=eastwest;newEdgeStyle={&quot;curved&quot;:0,&quot;rounded&quot;:0};direction=south;fillColor=#000000;" vertex="1" parent="1">
          <mxGeometry x="293" y="708" width="164" height="10" as="geometry" />
        </mxCell>
        <mxCell id="uUNol-_CrNXswZhDbWW2-23" value="" style="endArrow=classic;html=1;rounded=0;entryX=0.5;entryY=0;entryDx=0;entryDy=0;" edge="1" parent="1" source="uUNol-_CrNXswZhDbWW2-21" target="uUNol-_CrNXswZhDbWW2-24">
          <mxGeometry width="50" height="50" relative="1" as="geometry">
            <mxPoint x="381" y="252" as="sourcePoint" />
            <mxPoint x="375" y="811" as="targetPoint" />
          </mxGeometry>
        </mxCell>
        <mxCell id="uUNol-_CrNXswZhDbWW2-24" value="" style="ellipse;html=1;shape=endState;fillColor=#000000;strokeColor=#ff0000;" vertex="1" parent="1">
          <mxGeometry x="360" y="828" width="30" height="30" as="geometry" />
        </mxCell>
        <mxCell id="uUNol-_CrNXswZhDbWW2-34" value="" style="endArrow=classic;html=1;rounded=0;exitX=0.5;exitY=1;exitDx=0;exitDy=0;" edge="1" parent="1" source="uUNol-_CrNXswZhDbWW2-14">
          <mxGeometry width="50" height="50" relative="1" as="geometry">
            <mxPoint x="253" y="639" as="sourcePoint" />
            <mxPoint x="371" y="461" as="targetPoint" />
          </mxGeometry>
        </mxCell>
        <mxCell id="uUNol-_CrNXswZhDbWW2-35" value="" style="endArrow=classic;html=1;rounded=0;entryX=1;entryY=0;entryDx=0;entryDy=0;" edge="1" parent="1" source="uUNol-_CrNXswZhDbWW2-16" target="uUNol-_CrNXswZhDbWW2-17">
          <mxGeometry width="50" height="50" relative="1" as="geometry">
            <mxPoint x="214" y="494" as="sourcePoint" />
            <mxPoint x="303" y="589" as="targetPoint" />
          </mxGeometry>
        </mxCell>
        <mxCell id="uUNol-_CrNXswZhDbWW2-36" value="" style="endArrow=classic;html=1;rounded=0;entryX=0.5;entryY=0;entryDx=0;entryDy=0;" edge="1" parent="1" source="uUNol-_CrNXswZhDbWW2-16" target="uUNol-_CrNXswZhDbWW2-18">
          <mxGeometry width="50" height="50" relative="1" as="geometry">
            <mxPoint x="253" y="639" as="sourcePoint" />
            <mxPoint x="303" y="589" as="targetPoint" />
          </mxGeometry>
        </mxCell>
        <mxCell id="uUNol-_CrNXswZhDbWW2-37" value="" style="endArrow=classic;html=1;rounded=0;exitX=1;exitY=0;exitDx=0;exitDy=5;exitPerimeter=0;entryX=0;entryY=0;entryDx=0;entryDy=0;" edge="1" parent="1" source="uUNol-_CrNXswZhDbWW2-16" target="uUNol-_CrNXswZhDbWW2-20">
          <mxGeometry width="50" height="50" relative="1" as="geometry">
            <mxPoint x="253" y="639" as="sourcePoint" />
            <mxPoint x="303" y="589" as="targetPoint" />
          </mxGeometry>
        </mxCell>
        <mxCell id="uUNol-_CrNXswZhDbWW2-38" value="" style="endArrow=classic;html=1;rounded=0;exitX=1;exitY=0;exitDx=0;exitDy=5;exitPerimeter=0;entryX=0.5;entryY=0;entryDx=0;entryDy=0;" edge="1" parent="1" source="uUNol-_CrNXswZhDbWW2-16" target="uUNol-_CrNXswZhDbWW2-19">
          <mxGeometry width="50" height="50" relative="1" as="geometry">
            <mxPoint x="253" y="639" as="sourcePoint" />
            <mxPoint x="303" y="589" as="targetPoint" />
          </mxGeometry>
        </mxCell>
        <mxCell id="uUNol-_CrNXswZhDbWW2-40" value="" style="endArrow=classic;html=1;rounded=0;exitX=1;exitY=1;exitDx=0;exitDy=0;entryX=0;entryY=1;entryDx=0;entryDy=-5;entryPerimeter=0;" edge="1" parent="1" source="uUNol-_CrNXswZhDbWW2-17" target="uUNol-_CrNXswZhDbWW2-21">
          <mxGeometry width="50" height="50" relative="1" as="geometry">
            <mxPoint x="253" y="639" as="sourcePoint" />
            <mxPoint x="303" y="589" as="targetPoint" />
          </mxGeometry>
        </mxCell>
        <mxCell id="uUNol-_CrNXswZhDbWW2-41" value="" style="endArrow=classic;html=1;rounded=0;exitX=0.5;exitY=1;exitDx=0;exitDy=0;" edge="1" parent="1" source="uUNol-_CrNXswZhDbWW2-18">
          <mxGeometry width="50" height="50" relative="1" as="geometry">
            <mxPoint x="253" y="639" as="sourcePoint" />
            <mxPoint x="356" y="705" as="targetPoint" />
          </mxGeometry>
        </mxCell>
        <mxCell id="uUNol-_CrNXswZhDbWW2-42" value="" style="endArrow=classic;html=1;rounded=0;exitX=0.5;exitY=1;exitDx=0;exitDy=0;" edge="1" parent="1" source="uUNol-_CrNXswZhDbWW2-19">
          <mxGeometry width="50" height="50" relative="1" as="geometry">
            <mxPoint x="253" y="639" as="sourcePoint" />
            <mxPoint x="387" y="706" as="targetPoint" />
          </mxGeometry>
        </mxCell>
        <mxCell id="uUNol-_CrNXswZhDbWW2-43" value="" style="endArrow=classic;html=1;rounded=0;exitX=0;exitY=1;exitDx=0;exitDy=0;entryX=0;entryY=0;entryDx=0;entryDy=5;entryPerimeter=0;" edge="1" parent="1" source="uUNol-_CrNXswZhDbWW2-20" target="uUNol-_CrNXswZhDbWW2-21">
          <mxGeometry width="50" height="50" relative="1" as="geometry">
            <mxPoint x="253" y="639" as="sourcePoint" />
            <mxPoint x="303" y="589" as="targetPoint" />
          </mxGeometry>
        </mxCell>
      </root>
    </mxGraphModel>
  </diagram>
</mxfile>
